<mxfile host="app.diagrams.net" agent="Mozilla/5.0 (Windows NT 10.0; Win64; x64; rv:138.0) Gecko/20100101 Firefox/138.0" version="27.0.2">
  <diagram name="Page-1" id="W-tl4HCX4jmo3ESgpqSm">
    <mxGraphModel dx="1042" dy="1663" grid="1" gridSize="10" guides="1" tooltips="1" connect="1" arrows="1" fold="1" page="1" pageScale="1" pageWidth="850" pageHeight="1100" math="0" shadow="0">
      <root>
        <mxCell id="0" />
        <mxCell id="1" parent="0" />
        <mxCell id="oX0YM8RUJD8wcIqvGLsu-1" value="" style="strokeWidth=2;html=1;shape=mxgraph.flowchart.annotation_2;align=left;labelPosition=right;pointerEvents=1;rotation=90;" vertex="1" parent="1">
          <mxGeometry x="678.13" y="178.92" width="83.75" height="279.21" as="geometry" />
        </mxCell>
        <mxCell id="oX0YM8RUJD8wcIqvGLsu-2" style="edgeStyle=none;rounded=0;orthogonalLoop=1;jettySize=auto;html=1;exitX=1;exitY=0.5;exitDx=0;exitDy=0;entryX=0;entryY=0.5;entryDx=0;entryDy=0;" edge="1" parent="1" source="oX0YM8RUJD8wcIqvGLsu-4" target="oX0YM8RUJD8wcIqvGLsu-12">
          <mxGeometry relative="1" as="geometry" />
        </mxCell>
        <mxCell id="oX0YM8RUJD8wcIqvGLsu-3" style="edgeStyle=none;rounded=0;orthogonalLoop=1;jettySize=auto;html=1;exitX=0;exitY=0;exitDx=0;exitDy=0;" edge="1" parent="1" source="oX0YM8RUJD8wcIqvGLsu-4">
          <mxGeometry relative="1" as="geometry">
            <mxPoint x="270.1428571428571" y="170" as="targetPoint" />
          </mxGeometry>
        </mxCell>
        <mxCell id="oX0YM8RUJD8wcIqvGLsu-4" value="&lt;font style=&quot;font-size: 16px;&quot;&gt;ESP32 (Ball)&lt;/font&gt;" style="rounded=0;whiteSpace=wrap;html=1;" vertex="1" parent="1">
          <mxGeometry x="270" y="220" width="120" height="60" as="geometry" />
        </mxCell>
        <mxCell id="oX0YM8RUJD8wcIqvGLsu-5" value="&lt;font style=&quot;font-size: 16px;&quot;&gt;ESP32 (Head)&lt;/font&gt;" style="rounded=0;whiteSpace=wrap;html=1;" vertex="1" parent="1">
          <mxGeometry x="660" y="220" width="120" height="60" as="geometry" />
        </mxCell>
        <mxCell id="oX0YM8RUJD8wcIqvGLsu-6" style="edgeStyle=none;rounded=0;orthogonalLoop=1;jettySize=auto;html=1;exitX=0;exitY=1;exitDx=0;exitDy=0;entryX=1;entryY=0;entryDx=0;entryDy=0;" edge="1" parent="1" source="oX0YM8RUJD8wcIqvGLsu-9" target="oX0YM8RUJD8wcIqvGLsu-31">
          <mxGeometry relative="1" as="geometry" />
        </mxCell>
        <mxCell id="oX0YM8RUJD8wcIqvGLsu-7" style="edgeStyle=none;rounded=0;orthogonalLoop=1;jettySize=auto;html=1;exitX=1;exitY=1;exitDx=0;exitDy=0;entryX=0;entryY=0;entryDx=0;entryDy=0;" edge="1" parent="1" source="oX0YM8RUJD8wcIqvGLsu-9" target="oX0YM8RUJD8wcIqvGLsu-29">
          <mxGeometry relative="1" as="geometry" />
        </mxCell>
        <mxCell id="oX0YM8RUJD8wcIqvGLsu-8" style="edgeStyle=none;rounded=0;orthogonalLoop=1;jettySize=auto;html=1;exitX=0.5;exitY=0;exitDx=0;exitDy=0;entryX=0.5;entryY=1;entryDx=0;entryDy=0;" edge="1" parent="1" source="oX0YM8RUJD8wcIqvGLsu-9" target="oX0YM8RUJD8wcIqvGLsu-59">
          <mxGeometry relative="1" as="geometry" />
        </mxCell>
        <mxCell id="oX0YM8RUJD8wcIqvGLsu-9" value="&lt;font style=&quot;font-size: 16px;&quot;&gt;Raspberry PI&lt;/font&gt;" style="rounded=0;whiteSpace=wrap;html=1;" vertex="1" parent="1">
          <mxGeometry x="357.19" y="-46.25" width="120" height="60" as="geometry" />
        </mxCell>
        <mxCell id="oX0YM8RUJD8wcIqvGLsu-10" value="&lt;div&gt;&lt;font style=&quot;font-size: 16px;&quot;&gt;RFID&lt;/font&gt;&lt;/div&gt;&lt;div&gt;&lt;font style=&quot;font-size: 16px;&quot;&gt;(Keycard)&lt;/font&gt;&lt;/div&gt;" style="rounded=1;whiteSpace=wrap;html=1;" vertex="1" parent="1">
          <mxGeometry x="30" y="25" width="80" height="130" as="geometry" />
        </mxCell>
        <mxCell id="oX0YM8RUJD8wcIqvGLsu-11" style="edgeStyle=none;rounded=0;orthogonalLoop=1;jettySize=auto;html=1;exitX=1;exitY=0.5;exitDx=0;exitDy=0;entryX=0;entryY=0.5;entryDx=0;entryDy=0;" edge="1" parent="1" source="oX0YM8RUJD8wcIqvGLsu-12" target="oX0YM8RUJD8wcIqvGLsu-5">
          <mxGeometry relative="1" as="geometry" />
        </mxCell>
        <mxCell id="oX0YM8RUJD8wcIqvGLsu-12" value="&lt;div&gt;&lt;font style=&quot;font-size: 14px;&quot;&gt;Senda ON+ID&lt;/font&gt;&lt;/div&gt;&lt;div&gt;&lt;font style=&quot;font-size: 14px;&quot;&gt;(MQTT)&lt;/font&gt;&lt;/div&gt;" style="ellipse;whiteSpace=wrap;html=1;" vertex="1" parent="1">
          <mxGeometry x="450" y="215" width="130" height="70" as="geometry" />
        </mxCell>
        <mxCell id="oX0YM8RUJD8wcIqvGLsu-13" style="edgeStyle=none;rounded=0;orthogonalLoop=1;jettySize=auto;html=1;exitX=1;exitY=0.5;exitDx=0;exitDy=0;entryX=0;entryY=0.5;entryDx=0;entryDy=0;" edge="1" parent="1" source="oX0YM8RUJD8wcIqvGLsu-14" target="oX0YM8RUJD8wcIqvGLsu-4">
          <mxGeometry relative="1" as="geometry" />
        </mxCell>
        <mxCell id="oX0YM8RUJD8wcIqvGLsu-14" value="&lt;div&gt;&lt;font style=&quot;font-size: 14px;&quot;&gt;Sends Unique Identifier (ID)&lt;/font&gt;&lt;/div&gt;" style="ellipse;whiteSpace=wrap;html=1;" vertex="1" parent="1">
          <mxGeometry x="110" y="210" width="120" height="80" as="geometry" />
        </mxCell>
        <mxCell id="oX0YM8RUJD8wcIqvGLsu-15" style="edgeStyle=none;rounded=0;orthogonalLoop=1;jettySize=auto;html=1;exitX=1;exitY=0.5;exitDx=0;exitDy=0;" edge="1" parent="1" source="oX0YM8RUJD8wcIqvGLsu-14" target="oX0YM8RUJD8wcIqvGLsu-14">
          <mxGeometry relative="1" as="geometry" />
        </mxCell>
        <mxCell id="oX0YM8RUJD8wcIqvGLsu-16" value="" style="shape=flexArrow;endArrow=classic;html=1;rounded=0;endWidth=22;endSize=6.67;width=8;entryX=0;entryY=0.5;entryDx=0;entryDy=0;exitX=0.5;exitY=1;exitDx=0;exitDy=0;" edge="1" parent="1" source="oX0YM8RUJD8wcIqvGLsu-10" target="oX0YM8RUJD8wcIqvGLsu-14">
          <mxGeometry width="50" height="50" relative="1" as="geometry">
            <mxPoint x="69.5" y="160" as="sourcePoint" />
            <mxPoint x="70" y="270" as="targetPoint" />
            <Array as="points">
              <mxPoint x="70" y="250" />
            </Array>
          </mxGeometry>
        </mxCell>
        <mxCell id="oX0YM8RUJD8wcIqvGLsu-17" value="&lt;div&gt;&lt;font style=&quot;font-size: 14px;&quot;&gt;Looks for ID in&lt;/font&gt;&lt;/div&gt;&lt;div&gt;&lt;font style=&quot;font-size: 14px;&quot;&gt;Stored JSON&lt;/font&gt;&lt;/div&gt;" style="ellipse;shape=cloud;whiteSpace=wrap;html=1;" vertex="1" parent="1">
          <mxGeometry x="815.1800000000001" y="43.75" width="170" height="110" as="geometry" />
        </mxCell>
        <mxCell id="oX0YM8RUJD8wcIqvGLsu-18" value="" style="shape=flexArrow;endArrow=classic;startArrow=classic;html=1;rounded=0;" edge="1" parent="1">
          <mxGeometry width="100" height="100" relative="1" as="geometry">
            <mxPoint x="795.1800000000001" y="218.75" as="sourcePoint" />
            <mxPoint x="865.1800000000001" y="158.75" as="targetPoint" />
          </mxGeometry>
        </mxCell>
        <mxCell id="oX0YM8RUJD8wcIqvGLsu-19" style="edgeStyle=none;rounded=0;orthogonalLoop=1;jettySize=auto;html=1;exitX=1;exitY=0.5;exitDx=0;exitDy=0;entryX=0;entryY=0.5;entryDx=0;entryDy=0;" edge="1" parent="1" source="oX0YM8RUJD8wcIqvGLsu-20" target="oX0YM8RUJD8wcIqvGLsu-25">
          <mxGeometry relative="1" as="geometry" />
        </mxCell>
        <mxCell id="oX0YM8RUJD8wcIqvGLsu-20" value="&lt;font style=&quot;font-size: 14px;&quot;&gt;ID doesn&#39;t exist&lt;/font&gt;" style="rounded=0;whiteSpace=wrap;html=1;" vertex="1" parent="1">
          <mxGeometry x="1045.18" y="132.5" width="130" height="60" as="geometry" />
        </mxCell>
        <mxCell id="oX0YM8RUJD8wcIqvGLsu-21" value="" style="strokeWidth=2;html=1;shape=mxgraph.flowchart.annotation_2;align=left;labelPosition=right;pointerEvents=1;" vertex="1" parent="1">
          <mxGeometry x="985.1800000000001" y="62.5" width="50" height="100" as="geometry" />
        </mxCell>
        <mxCell id="oX0YM8RUJD8wcIqvGLsu-22" style="edgeStyle=none;rounded=0;orthogonalLoop=1;jettySize=auto;html=1;exitX=1;exitY=0.5;exitDx=0;exitDy=0;entryX=0;entryY=0.5;entryDx=0;entryDy=0;" edge="1" parent="1" source="oX0YM8RUJD8wcIqvGLsu-23" target="oX0YM8RUJD8wcIqvGLsu-24">
          <mxGeometry relative="1" as="geometry" />
        </mxCell>
        <mxCell id="oX0YM8RUJD8wcIqvGLsu-23" value="&lt;font style=&quot;font-size: 14px;&quot;&gt;ID exists&lt;/font&gt;" style="rounded=0;whiteSpace=wrap;html=1;" vertex="1" parent="1">
          <mxGeometry x="1045.18" y="37.5" width="130" height="60" as="geometry" />
        </mxCell>
        <mxCell id="oX0YM8RUJD8wcIqvGLsu-24" value="&lt;font style=&quot;font-size: 14px;&quot;&gt;Parse the information relating to the ID for later use&lt;/font&gt;" style="rounded=0;whiteSpace=wrap;html=1;" vertex="1" parent="1">
          <mxGeometry x="1205.18" y="33.75" width="170" height="67.5" as="geometry" />
        </mxCell>
        <mxCell id="oX0YM8RUJD8wcIqvGLsu-25" value="&lt;font style=&quot;font-size: 14px;&quot;&gt;Update the json file with the new ID so we can build a profile&lt;/font&gt;" style="rounded=0;whiteSpace=wrap;html=1;" vertex="1" parent="1">
          <mxGeometry x="1205.18" y="126.25" width="180" height="72.5" as="geometry" />
        </mxCell>
        <mxCell id="oX0YM8RUJD8wcIqvGLsu-26" style="edgeStyle=none;rounded=0;orthogonalLoop=1;jettySize=auto;html=1;exitX=1;exitY=0.5;exitDx=0;exitDy=0;" edge="1" parent="1" source="oX0YM8RUJD8wcIqvGLsu-20" target="oX0YM8RUJD8wcIqvGLsu-20">
          <mxGeometry relative="1" as="geometry" />
        </mxCell>
        <mxCell id="oX0YM8RUJD8wcIqvGLsu-27" style="edgeStyle=none;rounded=0;orthogonalLoop=1;jettySize=auto;html=1;exitX=1;exitY=0.5;exitDx=0;exitDy=0;" edge="1" parent="1" source="oX0YM8RUJD8wcIqvGLsu-20" target="oX0YM8RUJD8wcIqvGLsu-20">
          <mxGeometry relative="1" as="geometry" />
        </mxCell>
        <mxCell id="oX0YM8RUJD8wcIqvGLsu-28" value="&lt;font style=&quot;font-size: 16px;&quot;&gt;MP3 Player&lt;/font&gt;" style="rounded=0;whiteSpace=wrap;html=1;" vertex="1" parent="1">
          <mxGeometry x="1390" y="320" width="120" height="60" as="geometry" />
        </mxCell>
        <mxCell id="oX0YM8RUJD8wcIqvGLsu-29" value="&lt;div&gt;&lt;font style=&quot;font-size: 16px;&quot;&gt;Node-Red&lt;/font&gt;&lt;/div&gt;&lt;div&gt;&lt;font style=&quot;font-size: 16px;&quot;&gt;Webserver&lt;/font&gt;&lt;/div&gt;" style="rounded=0;whiteSpace=wrap;html=1;" vertex="1" parent="1">
          <mxGeometry x="496.25" y="33.75" width="120" height="60" as="geometry" />
        </mxCell>
        <mxCell id="oX0YM8RUJD8wcIqvGLsu-30" style="edgeStyle=none;rounded=0;orthogonalLoop=1;jettySize=auto;html=1;exitX=1;exitY=1;exitDx=0;exitDy=0;" edge="1" parent="1" source="oX0YM8RUJD8wcIqvGLsu-31">
          <mxGeometry relative="1" as="geometry">
            <mxPoint x="339.8571428571429" y="130" as="targetPoint" />
          </mxGeometry>
        </mxCell>
        <mxCell id="oX0YM8RUJD8wcIqvGLsu-31" value="&lt;div&gt;&lt;font style=&quot;font-size: 16px;&quot;&gt;Simple Python&lt;/font&gt;&lt;/div&gt;&lt;div&gt;&lt;font style=&quot;font-size: 16px;&quot;&gt;HTTP Server&lt;/font&gt;&lt;/div&gt;" style="rounded=0;whiteSpace=wrap;html=1;" vertex="1" parent="1">
          <mxGeometry x="220" y="33.75" width="120" height="60" as="geometry" />
        </mxCell>
        <mxCell id="oX0YM8RUJD8wcIqvGLsu-32" value="&lt;div&gt;&lt;font style=&quot;font-size: 13px;&quot;&gt;Get time now&lt;/font&gt;&lt;/div&gt;&lt;div&gt;&lt;font style=&quot;font-size: 13px;&quot;&gt;(morning, evening,&lt;/font&gt;&lt;/div&gt;&lt;div&gt;&lt;font style=&quot;font-size: 13px;&quot;&gt;afternoon, night, etc...)&lt;/font&gt;&lt;/div&gt;" style="ellipse;shape=cloud;whiteSpace=wrap;html=1;" vertex="1" parent="1">
          <mxGeometry x="936.25" y="450" width="180" height="120" as="geometry" />
        </mxCell>
        <mxCell id="oX0YM8RUJD8wcIqvGLsu-33" value="&lt;div&gt;&lt;font style=&quot;font-size: 13px;&quot;&gt;Get Moon Phase&lt;/font&gt;&lt;/div&gt;&lt;div&gt;&lt;font style=&quot;font-size: 13px;&quot;&gt;(Full moon, crescent&lt;/font&gt;&lt;/div&gt;&lt;div&gt;&lt;font style=&quot;font-size: 13px;&quot;&gt;moon, half moon, etc...)&lt;/font&gt;&lt;/div&gt;" style="ellipse;shape=cloud;whiteSpace=wrap;html=1;" vertex="1" parent="1">
          <mxGeometry x="1056.25" y="560" width="190" height="125" as="geometry" />
        </mxCell>
        <mxCell id="oX0YM8RUJD8wcIqvGLsu-34" value="&lt;div&gt;&lt;font style=&quot;font-size: 13px;&quot;&gt;Get Weather Info&lt;/font&gt;&lt;/div&gt;&lt;div&gt;&lt;font style=&quot;font-size: 13px;&quot;&gt;(Temperature, weather&lt;/font&gt;&lt;/div&gt;&lt;div&gt;&lt;font style=&quot;font-size: 13px;&quot;&gt;description, etc...)&lt;/font&gt;&lt;/div&gt;" style="ellipse;shape=cloud;whiteSpace=wrap;html=1;" vertex="1" parent="1">
          <mxGeometry x="1176.25" y="455" width="220" height="110" as="geometry" />
        </mxCell>
        <mxCell id="oX0YM8RUJD8wcIqvGLsu-35" value="&lt;font style=&quot;font-size: 16px;&quot;&gt;Get Data&lt;/font&gt;" style="rounded=0;whiteSpace=wrap;html=1;" vertex="1" parent="1">
          <mxGeometry x="810" y="360" width="120" height="60" as="geometry" />
        </mxCell>
        <mxCell id="oX0YM8RUJD8wcIqvGLsu-36" value="" style="shape=flexArrow;endArrow=classic;html=1;rounded=0;" edge="1" parent="1">
          <mxGeometry width="50" height="50" relative="1" as="geometry">
            <mxPoint x="936.25" y="430" as="sourcePoint" />
            <mxPoint x="976.25" y="470" as="targetPoint" />
          </mxGeometry>
        </mxCell>
        <mxCell id="oX0YM8RUJD8wcIqvGLsu-37" value="" style="triangle;whiteSpace=wrap;html=1;rotation=90;" vertex="1" parent="1">
          <mxGeometry x="1126.25" y="500" width="50" height="70" as="geometry" />
        </mxCell>
        <mxCell id="oX0YM8RUJD8wcIqvGLsu-38" value="" style="triangle;whiteSpace=wrap;html=1;rotation=90;" vertex="1" parent="1">
          <mxGeometry x="1139.1400000000003" y="512.89" width="24.22" height="33.75" as="geometry" />
        </mxCell>
        <mxCell id="oX0YM8RUJD8wcIqvGLsu-39" value="&lt;div&gt;&lt;font style=&quot;font-size: 16px;&quot;&gt;Behaviour&lt;/font&gt;&lt;/div&gt;&lt;div&gt;&lt;font style=&quot;font-size: 16px;&quot;&gt;(Stored in JSON)&lt;/font&gt;&lt;/div&gt;" style="rounded=0;whiteSpace=wrap;html=1;" vertex="1" parent="1">
          <mxGeometry x="491.25" y="360" width="130" height="60" as="geometry" />
        </mxCell>
        <mxCell id="oX0YM8RUJD8wcIqvGLsu-40" value="" style="strokeWidth=2;html=1;shape=mxgraph.flowchart.annotation_2;align=left;labelPosition=right;pointerEvents=1;rotation=90;" vertex="1" parent="1">
          <mxGeometry x="515" y="367.5" width="70" height="175" as="geometry" />
        </mxCell>
        <mxCell id="oX0YM8RUJD8wcIqvGLsu-41" value="&lt;div&gt;&lt;font style=&quot;font-size: 16px;&quot;&gt;Mood index&lt;/font&gt;&lt;/div&gt;&lt;div&gt;&lt;font style=&quot;font-size: 16px;&quot;&gt;(0-100)&lt;/font&gt;&lt;/div&gt;" style="rounded=0;whiteSpace=wrap;html=1;" vertex="1" parent="1">
          <mxGeometry x="400" y="491" width="120" height="60" as="geometry" />
        </mxCell>
        <mxCell id="oX0YM8RUJD8wcIqvGLsu-42" style="edgeStyle=none;rounded=0;orthogonalLoop=1;jettySize=auto;html=1;exitX=0.5;exitY=1;exitDx=0;exitDy=0;entryX=0.5;entryY=0;entryDx=0;entryDy=0;" edge="1" parent="1" source="oX0YM8RUJD8wcIqvGLsu-43" target="oX0YM8RUJD8wcIqvGLsu-48">
          <mxGeometry relative="1" as="geometry" />
        </mxCell>
        <mxCell id="oX0YM8RUJD8wcIqvGLsu-43" value="&lt;div&gt;&lt;font style=&quot;font-size: 16px;&quot;&gt;Loneliness index&lt;/font&gt;&lt;/div&gt;&lt;div&gt;&lt;font style=&quot;font-size: 16px;&quot;&gt;(0-infinity)&lt;/font&gt;&lt;/div&gt;" style="rounded=0;whiteSpace=wrap;html=1;" vertex="1" parent="1">
          <mxGeometry x="577.5" y="491.25" width="132.5" height="60" as="geometry" />
        </mxCell>
        <mxCell id="oX0YM8RUJD8wcIqvGLsu-44" value="&lt;font style=&quot;font-size: 16px;&quot;&gt;Likeability index&lt;/font&gt;" style="rounded=0;whiteSpace=wrap;html=1;" vertex="1" parent="1">
          <mxGeometry x="150" y="491" width="130" height="60" as="geometry" />
        </mxCell>
        <mxCell id="oX0YM8RUJD8wcIqvGLsu-45" value="&lt;div&gt;&lt;font style=&quot;font-size: 11px;&quot;&gt;The likeability index is how friendly the FT feels towards the person (ID)&lt;/font&gt;&lt;/div&gt;&lt;div&gt;&lt;font style=&quot;font-size: 11px;&quot;&gt;Likeability can go down or up depending on the outcome of the interaction&lt;/font&gt;&lt;/div&gt;" style="shape=callout;whiteSpace=wrap;html=1;perimeter=calloutPerimeter;flipV=1;flipH=1;" vertex="1" parent="1">
          <mxGeometry x="50" y="561.64" width="190" height="123.36" as="geometry" />
        </mxCell>
        <mxCell id="oX0YM8RUJD8wcIqvGLsu-46" value="&lt;div&gt;&lt;font style=&quot;font-size: 11px;&quot;&gt;Mood index is by default 50 and factors during an interaction can lower or increase it by N amount&lt;/font&gt;&lt;/div&gt;" style="shape=callout;whiteSpace=wrap;html=1;perimeter=calloutPerimeter;direction=east;flipH=1;flipV=1;" vertex="1" parent="1">
          <mxGeometry x="322" y="561.6400000000001" width="146" height="120" as="geometry" />
        </mxCell>
        <mxCell id="oX0YM8RUJD8wcIqvGLsu-47" value="" style="shape=link;html=1;rounded=0;width=8.620689655172413;" edge="1" parent="1">
          <mxGeometry width="100" relative="1" as="geometry">
            <mxPoint x="290" y="521" as="sourcePoint" />
            <mxPoint x="395" y="520.91" as="targetPoint" />
          </mxGeometry>
        </mxCell>
        <mxCell id="oX0YM8RUJD8wcIqvGLsu-48" value="&lt;font style=&quot;font-size: 11px;&quot;&gt;Loneliness index is how long since he was last woken up, for each minute the index is increased by 1&lt;/font&gt;" style="rounded=0;whiteSpace=wrap;html=1;" vertex="1" parent="1">
          <mxGeometry x="567.5" y="575" width="152.5" height="70" as="geometry" />
        </mxCell>
        <mxCell id="oX0YM8RUJD8wcIqvGLsu-49" value="&lt;div&gt;&lt;font style=&quot;font-size: 11px;&quot;&gt;Low Loneliness during encounter makes the FT more (arrogant, haughty, grumpy, disagreeable, dismissive, etc...)&lt;/font&gt;&lt;/div&gt;" style="rounded=0;whiteSpace=wrap;html=1;" vertex="1" parent="1">
          <mxGeometry x="500" y="700" width="140.32" height="75" as="geometry" />
        </mxCell>
        <mxCell id="oX0YM8RUJD8wcIqvGLsu-50" value="&lt;font style=&quot;font-size: 11px;&quot;&gt;Higher Loneliness during encounter makes FT more (enthusiastic, humble, needy, seeking approval type shi, etc...)&lt;/font&gt;" style="rounded=0;whiteSpace=wrap;html=1;" vertex="1" parent="1">
          <mxGeometry x="655.1800000000001" y="700" width="140" height="75" as="geometry" />
        </mxCell>
        <mxCell id="oX0YM8RUJD8wcIqvGLsu-51" value="" style="strokeWidth=2;html=1;shape=mxgraph.flowchart.annotation_2;align=left;labelPosition=right;pointerEvents=1;rotation=90;" vertex="1" parent="1">
          <mxGeometry x="617.19" y="598.44" width="53.13" height="150" as="geometry" />
        </mxCell>
        <mxCell id="oX0YM8RUJD8wcIqvGLsu-52" value="&lt;font style=&quot;font-size: 11px;&quot;&gt;At the end any interaction either (reset the index to 0) or (divide the index by N), if N = 2 then we are halving the loneliness per interaction&lt;/font&gt;" style="rounded=0;whiteSpace=wrap;html=1;" vertex="1" parent="1">
          <mxGeometry x="770" y="575" width="152.5" height="70" as="geometry" />
        </mxCell>
        <mxCell id="oX0YM8RUJD8wcIqvGLsu-53" value="" style="shape=link;html=1;rounded=0;width=8.333333333333336;" edge="1" parent="1">
          <mxGeometry width="100" relative="1" as="geometry">
            <mxPoint x="730" y="609.58" as="sourcePoint" />
            <mxPoint x="760" y="609.58" as="targetPoint" />
          </mxGeometry>
        </mxCell>
        <mxCell id="oX0YM8RUJD8wcIqvGLsu-54" style="edgeStyle=none;rounded=0;orthogonalLoop=1;jettySize=auto;html=1;exitX=0.5;exitY=0;exitDx=0;exitDy=0;entryX=1;entryY=0.5;entryDx=0;entryDy=0;" edge="1" parent="1" source="oX0YM8RUJD8wcIqvGLsu-55" target="oX0YM8RUJD8wcIqvGLsu-9">
          <mxGeometry relative="1" as="geometry">
            <mxPoint x="600" y="-40" as="targetPoint" />
            <Array as="points">
              <mxPoint x="725" y="-16" />
            </Array>
          </mxGeometry>
        </mxCell>
        <mxCell id="oX0YM8RUJD8wcIqvGLsu-55" value="&lt;div&gt;&lt;font&gt;After deciding the behaviour and getting the relevant data we craft the prompt and send it to the Raspberry PI&lt;/font&gt;&lt;/div&gt;" style="rounded=0;whiteSpace=wrap;html=1;" vertex="1" parent="1">
          <mxGeometry x="657.67" y="33.75" width="135.01" height="110" as="geometry" />
        </mxCell>
        <mxCell id="oX0YM8RUJD8wcIqvGLsu-56" style="edgeStyle=none;rounded=0;orthogonalLoop=1;jettySize=auto;html=1;exitX=0.5;exitY=0;exitDx=0;exitDy=0;entryX=0.454;entryY=1.014;entryDx=0;entryDy=0;entryPerimeter=0;" edge="1" parent="1">
          <mxGeometry relative="1" as="geometry">
            <mxPoint x="725.69" y="220.00000000000023" as="sourcePoint" />
            <mxPoint x="724.65454" y="145.2900000000002" as="targetPoint" />
          </mxGeometry>
        </mxCell>
        <mxCell id="oX0YM8RUJD8wcIqvGLsu-57" style="edgeStyle=none;rounded=0;orthogonalLoop=1;jettySize=auto;html=1;exitX=0.5;exitY=1;exitDx=0;exitDy=0;entryX=0.5;entryY=0;entryDx=0;entryDy=0;" edge="1" parent="1" source="oX0YM8RUJD8wcIqvGLsu-58" target="oX0YM8RUJD8wcIqvGLsu-62">
          <mxGeometry relative="1" as="geometry" />
        </mxCell>
        <mxCell id="oX0YM8RUJD8wcIqvGLsu-58" value="&amp;nbsp;This returns an mp3 file which we convert to WAV format (&amp;lt;1 sec)" style="rounded=0;whiteSpace=wrap;html=1;" vertex="1" parent="1">
          <mxGeometry x="210" y="-199.37" width="130" height="60" as="geometry" />
        </mxCell>
        <mxCell id="oX0YM8RUJD8wcIqvGLsu-59" value="Queries OpenAI API with prompt (2-3 sec)" style="rounded=0;whiteSpace=wrap;html=1;" vertex="1" parent="1">
          <mxGeometry x="357.19" y="-120" width="120" height="60" as="geometry" />
        </mxCell>
        <mxCell id="oX0YM8RUJD8wcIqvGLsu-60" style="edgeStyle=none;rounded=0;orthogonalLoop=1;jettySize=auto;html=1;exitX=0;exitY=0.5;exitDx=0;exitDy=0;entryX=1;entryY=0.5;entryDx=0;entryDy=0;" edge="1" parent="1" source="oX0YM8RUJD8wcIqvGLsu-61" target="oX0YM8RUJD8wcIqvGLsu-58">
          <mxGeometry relative="1" as="geometry" />
        </mxCell>
        <mxCell id="oX0YM8RUJD8wcIqvGLsu-61" value="Response is then used to query ElevenLabs API (7-10 sec)" style="rounded=0;whiteSpace=wrap;html=1;" vertex="1" parent="1">
          <mxGeometry x="357.19" y="-199.37" width="122.81" height="60" as="geometry" />
        </mxCell>
        <mxCell id="oX0YM8RUJD8wcIqvGLsu-62" value=" The WAV file is saved in the directory/path which the HTTP server is hosting (&amp;lt;1 sec)" style="rounded=0;whiteSpace=wrap;html=1;" vertex="1" parent="1">
          <mxGeometry x="210" y="-120" width="130" height="70" as="geometry" />
        </mxCell>
        <mxCell id="oX0YM8RUJD8wcIqvGLsu-63" style="edgeStyle=none;rounded=0;orthogonalLoop=1;jettySize=auto;html=1;exitX=0.5;exitY=0;exitDx=0;exitDy=0;" edge="1" parent="1" source="oX0YM8RUJD8wcIqvGLsu-59" target="oX0YM8RUJD8wcIqvGLsu-59">
          <mxGeometry relative="1" as="geometry" />
        </mxCell>
        <mxCell id="oX0YM8RUJD8wcIqvGLsu-64" style="edgeStyle=none;rounded=0;orthogonalLoop=1;jettySize=auto;html=1;exitX=0.5;exitY=0;exitDx=0;exitDy=0;" edge="1" parent="1" source="oX0YM8RUJD8wcIqvGLsu-59" target="oX0YM8RUJD8wcIqvGLsu-59">
          <mxGeometry relative="1" as="geometry" />
        </mxCell>
        <mxCell id="oX0YM8RUJD8wcIqvGLsu-65" style="edgeStyle=none;rounded=0;orthogonalLoop=1;jettySize=auto;html=1;exitX=0.5;exitY=0;exitDx=0;exitDy=0;entryX=0.489;entryY=1.015;entryDx=0;entryDy=0;entryPerimeter=0;" edge="1" parent="1" source="oX0YM8RUJD8wcIqvGLsu-59" target="oX0YM8RUJD8wcIqvGLsu-61">
          <mxGeometry relative="1" as="geometry" />
        </mxCell>
        <mxCell id="oX0YM8RUJD8wcIqvGLsu-66" style="edgeStyle=none;rounded=0;orthogonalLoop=1;jettySize=auto;html=1;exitX=0.5;exitY=1;exitDx=0;exitDy=0;entryX=0.462;entryY=0.006;entryDx=0;entryDy=0;entryPerimeter=0;" edge="1" parent="1" source="oX0YM8RUJD8wcIqvGLsu-62" target="oX0YM8RUJD8wcIqvGLsu-31">
          <mxGeometry relative="1" as="geometry" />
        </mxCell>
        <mxCell id="oX0YM8RUJD8wcIqvGLsu-67" value="" style="endArrow=none;dashed=1;html=1;rounded=0;" edge="1" parent="1">
          <mxGeometry width="50" height="50" relative="1" as="geometry">
            <mxPoint x="210" y="-90" as="sourcePoint" />
            <mxPoint x="190" y="110" as="targetPoint" />
            <Array as="points">
              <mxPoint x="190" y="-90" />
            </Array>
          </mxGeometry>
        </mxCell>
        <mxCell id="oX0YM8RUJD8wcIqvGLsu-68" value="" style="endArrow=none;dashed=1;html=1;rounded=0;entryX=-0.018;entryY=-0.055;entryDx=0;entryDy=0;entryPerimeter=0;" edge="1" parent="1">
          <mxGeometry width="50" height="50" relative="1" as="geometry">
            <mxPoint x="190" y="110" as="sourcePoint" />
            <mxPoint x="269.8399999999999" y="219.70000000000005" as="targetPoint" />
            <Array as="points">
              <mxPoint x="270" y="220" />
            </Array>
          </mxGeometry>
        </mxCell>
        <mxCell id="oX0YM8RUJD8wcIqvGLsu-69" style="edgeStyle=none;rounded=0;orthogonalLoop=1;jettySize=auto;html=1;exitX=1;exitY=0.5;exitDx=0;exitDy=0;" edge="1" parent="1" source="oX0YM8RUJD8wcIqvGLsu-70">
          <mxGeometry relative="1" as="geometry">
            <mxPoint x="190" y="-30.14285714285711" as="targetPoint" />
          </mxGeometry>
        </mxCell>
        <mxCell id="oX0YM8RUJD8wcIqvGLsu-70" value="&lt;font style=&quot;font-size: 11px;&quot;&gt;MQTT message sent to let Ball ESP know that WAV file is ready to be downloaded&lt;/font&gt;" style="rounded=0;whiteSpace=wrap;html=1;" vertex="1" parent="1">
          <mxGeometry x="40" y="-60" width="130" height="60" as="geometry" />
        </mxCell>
        <mxCell id="oX0YM8RUJD8wcIqvGLsu-71" value="&lt;font style=&quot;font-size: 10px;&quot;&gt;GET request for WAV file&lt;/font&gt;" style="rounded=0;whiteSpace=wrap;html=1;" vertex="1" parent="1">
          <mxGeometry x="240" y="128.75" width="70" height="41.25" as="geometry" />
        </mxCell>
        <mxCell id="oX0YM8RUJD8wcIqvGLsu-72" style="edgeStyle=none;rounded=0;orthogonalLoop=1;jettySize=auto;html=1;exitX=0;exitY=0;exitDx=0;exitDy=0;entryX=0.165;entryY=1.03;entryDx=0;entryDy=0;entryPerimeter=0;" edge="1" parent="1" source="oX0YM8RUJD8wcIqvGLsu-71" target="oX0YM8RUJD8wcIqvGLsu-31">
          <mxGeometry relative="1" as="geometry" />
        </mxCell>
        <mxCell id="oX0YM8RUJD8wcIqvGLsu-73" value="&lt;font style=&quot;font-size: 10px;&quot;&gt;File sent over TCP protocol (3-4 sec)&lt;/font&gt;" style="rounded=0;whiteSpace=wrap;html=1;" vertex="1" parent="1">
          <mxGeometry x="322" y="129" width="89" height="41" as="geometry" />
        </mxCell>
        <mxCell id="oX0YM8RUJD8wcIqvGLsu-74" style="edgeStyle=none;rounded=0;orthogonalLoop=1;jettySize=auto;html=1;exitX=0.25;exitY=1;exitDx=0;exitDy=0;entryX=0.625;entryY=0.021;entryDx=0;entryDy=0;entryPerimeter=0;" edge="1" parent="1" source="oX0YM8RUJD8wcIqvGLsu-73" target="oX0YM8RUJD8wcIqvGLsu-4">
          <mxGeometry relative="1" as="geometry" />
        </mxCell>
      </root>
    </mxGraphModel>
  </diagram>
</mxfile>
